<mxfile host="app.diagrams.net" agent="Mozilla/5.0 (Windows NT 10.0; Win64; x64) AppleWebKit/537.36 (KHTML, like Gecko) Chrome/128.0.0.0 Safari/537.36 Edg/128.0.0.0" version="24.7.13">
  <diagram name="Page-1" id="VYEqVrG1UGAbmgOGc9eH">
    <mxGraphModel dx="3146" dy="1232" grid="1" gridSize="10" guides="1" tooltips="1" connect="1" arrows="1" fold="1" page="1" pageScale="1" pageWidth="850" pageHeight="1100" math="0" shadow="0">
      <root>
        <mxCell id="0" />
        <mxCell id="1" parent="0" />
        <mxCell id="0m2c8RY7dgpE1ZR3zUQE-9" value="" style="edgeStyle=orthogonalEdgeStyle;rounded=0;orthogonalLoop=1;jettySize=auto;html=1;" parent="1" source="0m2c8RY7dgpE1ZR3zUQE-1" target="0m2c8RY7dgpE1ZR3zUQE-8" edge="1">
          <mxGeometry relative="1" as="geometry" />
        </mxCell>
        <mxCell id="0m2c8RY7dgpE1ZR3zUQE-1" value="WRITE Vul hier het eerste nummer in" style="shape=parallelogram;perimeter=parallelogramPerimeter;whiteSpace=wrap;html=1;fixedSize=1;" parent="1" vertex="1">
          <mxGeometry x="352" y="121" width="140" height="70" as="geometry" />
        </mxCell>
        <mxCell id="0m2c8RY7dgpE1ZR3zUQE-11" value="" style="edgeStyle=orthogonalEdgeStyle;rounded=0;orthogonalLoop=1;jettySize=auto;html=1;" parent="1" source="0m2c8RY7dgpE1ZR3zUQE-8" target="0m2c8RY7dgpE1ZR3zUQE-10" edge="1">
          <mxGeometry relative="1" as="geometry" />
        </mxCell>
        <mxCell id="0m2c8RY7dgpE1ZR3zUQE-8" value="READ a" style="shape=parallelogram;perimeter=parallelogramPerimeter;whiteSpace=wrap;html=1;fixedSize=1;" parent="1" vertex="1">
          <mxGeometry x="347" y="261" width="150" height="60" as="geometry" />
        </mxCell>
        <mxCell id="0m2c8RY7dgpE1ZR3zUQE-13" value="" style="edgeStyle=orthogonalEdgeStyle;rounded=0;orthogonalLoop=1;jettySize=auto;html=1;" parent="1" source="0m2c8RY7dgpE1ZR3zUQE-10" target="0m2c8RY7dgpE1ZR3zUQE-12" edge="1">
          <mxGeometry relative="1" as="geometry" />
        </mxCell>
        <mxCell id="0m2c8RY7dgpE1ZR3zUQE-10" value="WRITE Vul hier het 2de nummer in" style="shape=parallelogram;perimeter=parallelogramPerimeter;whiteSpace=wrap;html=1;fixedSize=1;" parent="1" vertex="1">
          <mxGeometry x="342" y="401" width="160" height="60" as="geometry" />
        </mxCell>
        <mxCell id="0m2c8RY7dgpE1ZR3zUQE-15" value="" style="edgeStyle=orthogonalEdgeStyle;rounded=0;orthogonalLoop=1;jettySize=auto;html=1;" parent="1" source="0m2c8RY7dgpE1ZR3zUQE-12" target="0m2c8RY7dgpE1ZR3zUQE-14" edge="1">
          <mxGeometry relative="1" as="geometry" />
        </mxCell>
        <mxCell id="0m2c8RY7dgpE1ZR3zUQE-12" value="READ b" style="shape=parallelogram;perimeter=parallelogramPerimeter;whiteSpace=wrap;html=1;fixedSize=1;" parent="1" vertex="1">
          <mxGeometry x="342" y="541" width="160" height="60" as="geometry" />
        </mxCell>
        <mxCell id="0m2c8RY7dgpE1ZR3zUQE-17" value="" style="edgeStyle=orthogonalEdgeStyle;rounded=0;orthogonalLoop=1;jettySize=auto;html=1;" parent="1" source="0m2c8RY7dgpE1ZR3zUQE-14" target="0m2c8RY7dgpE1ZR3zUQE-16" edge="1">
          <mxGeometry relative="1" as="geometry" />
        </mxCell>
        <mxCell id="0m2c8RY7dgpE1ZR3zUQE-14" value="WRITE Vul hier het 3de nummer in" style="shape=parallelogram;perimeter=parallelogramPerimeter;whiteSpace=wrap;html=1;fixedSize=1;" parent="1" vertex="1">
          <mxGeometry x="342" y="681" width="160" height="60" as="geometry" />
        </mxCell>
        <mxCell id="0m2c8RY7dgpE1ZR3zUQE-19" value="" style="edgeStyle=orthogonalEdgeStyle;rounded=0;orthogonalLoop=1;jettySize=auto;html=1;" parent="1" source="0m2c8RY7dgpE1ZR3zUQE-16" target="0m2c8RY7dgpE1ZR3zUQE-18" edge="1">
          <mxGeometry relative="1" as="geometry" />
        </mxCell>
        <mxCell id="0m2c8RY7dgpE1ZR3zUQE-16" value="READ c" style="shape=parallelogram;perimeter=parallelogramPerimeter;whiteSpace=wrap;html=1;fixedSize=1;" parent="1" vertex="1">
          <mxGeometry x="342" y="821" width="160" height="60" as="geometry" />
        </mxCell>
        <mxCell id="sLLhHQ0Xb7AxkWWC5OnS-17" style="edgeStyle=orthogonalEdgeStyle;rounded=0;orthogonalLoop=1;jettySize=auto;html=1;entryX=0.5;entryY=0;entryDx=0;entryDy=0;" edge="1" parent="1" source="0m2c8RY7dgpE1ZR3zUQE-18" target="sLLhHQ0Xb7AxkWWC5OnS-16">
          <mxGeometry relative="1" as="geometry" />
        </mxCell>
        <mxCell id="sLLhHQ0Xb7AxkWWC5OnS-21" value="FALSE" style="edgeLabel;html=1;align=center;verticalAlign=middle;resizable=0;points=[];" vertex="1" connectable="0" parent="sLLhHQ0Xb7AxkWWC5OnS-17">
          <mxGeometry x="-0.3879" relative="1" as="geometry">
            <mxPoint as="offset" />
          </mxGeometry>
        </mxCell>
        <mxCell id="sLLhHQ0Xb7AxkWWC5OnS-18" style="edgeStyle=orthogonalEdgeStyle;rounded=0;orthogonalLoop=1;jettySize=auto;html=1;entryX=0.5;entryY=0;entryDx=0;entryDy=0;exitX=0;exitY=0.5;exitDx=0;exitDy=0;" edge="1" parent="1" source="0m2c8RY7dgpE1ZR3zUQE-18" target="0m2c8RY7dgpE1ZR3zUQE-22">
          <mxGeometry relative="1" as="geometry" />
        </mxCell>
        <mxCell id="sLLhHQ0Xb7AxkWWC5OnS-20" value="TRUE" style="edgeLabel;html=1;align=center;verticalAlign=middle;resizable=0;points=[];" vertex="1" connectable="0" parent="sLLhHQ0Xb7AxkWWC5OnS-18">
          <mxGeometry x="-0.1955" relative="1" as="geometry">
            <mxPoint as="offset" />
          </mxGeometry>
        </mxCell>
        <mxCell id="0m2c8RY7dgpE1ZR3zUQE-18" value="a &amp;gt; b&amp;nbsp;" style="shape=rhombus;perimeter=rhombusPerimeter;whiteSpace=wrap;html=1;fixedSize=1;" parent="1" vertex="1">
          <mxGeometry x="335.32000000000005" y="961" width="173.34" height="70" as="geometry" />
        </mxCell>
        <mxCell id="sLLhHQ0Xb7AxkWWC5OnS-37" value="TRUE" style="edgeStyle=orthogonalEdgeStyle;rounded=0;orthogonalLoop=1;jettySize=auto;html=1;exitX=0;exitY=0.5;exitDx=0;exitDy=0;entryX=0.5;entryY=0;entryDx=0;entryDy=0;" edge="1" parent="1" source="0m2c8RY7dgpE1ZR3zUQE-22" target="sLLhHQ0Xb7AxkWWC5OnS-34">
          <mxGeometry relative="1" as="geometry" />
        </mxCell>
        <mxCell id="sLLhHQ0Xb7AxkWWC5OnS-40" value="FALSE" style="edgeStyle=orthogonalEdgeStyle;rounded=0;orthogonalLoop=1;jettySize=auto;html=1;entryX=0.5;entryY=0;entryDx=0;entryDy=0;" edge="1" parent="1" source="0m2c8RY7dgpE1ZR3zUQE-22" target="sLLhHQ0Xb7AxkWWC5OnS-43">
          <mxGeometry relative="1" as="geometry">
            <mxPoint x="250.32000000000016" y="1195" as="targetPoint" />
          </mxGeometry>
        </mxCell>
        <mxCell id="0m2c8RY7dgpE1ZR3zUQE-22" value="a &amp;gt; c" style="shape=rhombus;perimeter=rhombusPerimeter;whiteSpace=wrap;html=1;fixedSize=1;" parent="1" vertex="1">
          <mxGeometry x="165.32" y="1050" width="170" height="70" as="geometry" />
        </mxCell>
        <mxCell id="sLLhHQ0Xb7AxkWWC5OnS-59" style="edgeStyle=orthogonalEdgeStyle;rounded=0;orthogonalLoop=1;jettySize=auto;html=1;entryX=0.5;entryY=0;entryDx=0;entryDy=0;" edge="1" parent="1" source="0m2c8RY7dgpE1ZR3zUQE-28" target="sLLhHQ0Xb7AxkWWC5OnS-6">
          <mxGeometry relative="1" as="geometry">
            <Array as="points">
              <mxPoint x="80" y="1370" />
              <mxPoint x="422" y="1370" />
            </Array>
          </mxGeometry>
        </mxCell>
        <mxCell id="0m2c8RY7dgpE1ZR3zUQE-28" value="WRITE c" style="shape=parallelogram;perimeter=parallelogramPerimeter;whiteSpace=wrap;html=1;fixedSize=1;" parent="1" vertex="1">
          <mxGeometry x="20.32" y="1290" width="120" height="50" as="geometry" />
        </mxCell>
        <mxCell id="sLLhHQ0Xb7AxkWWC5OnS-6" value="END" style="ellipse;whiteSpace=wrap;html=1;" vertex="1" parent="1">
          <mxGeometry x="361.99" y="1410" width="120" height="80" as="geometry" />
        </mxCell>
        <mxCell id="sLLhHQ0Xb7AxkWWC5OnS-8" style="edgeStyle=orthogonalEdgeStyle;rounded=0;orthogonalLoop=1;jettySize=auto;html=1;entryX=0.5;entryY=0;entryDx=0;entryDy=0;" edge="1" parent="1" source="sLLhHQ0Xb7AxkWWC5OnS-7" target="0m2c8RY7dgpE1ZR3zUQE-1">
          <mxGeometry relative="1" as="geometry" />
        </mxCell>
        <mxCell id="sLLhHQ0Xb7AxkWWC5OnS-7" value="START" style="ellipse;whiteSpace=wrap;html=1;" vertex="1" parent="1">
          <mxGeometry x="362" y="10" width="120" height="50" as="geometry" />
        </mxCell>
        <mxCell id="sLLhHQ0Xb7AxkWWC5OnS-36" style="edgeStyle=orthogonalEdgeStyle;rounded=0;orthogonalLoop=1;jettySize=auto;html=1;entryX=0.5;entryY=0;entryDx=0;entryDy=0;exitX=1;exitY=0.5;exitDx=0;exitDy=0;" edge="1" parent="1" source="sLLhHQ0Xb7AxkWWC5OnS-16" target="sLLhHQ0Xb7AxkWWC5OnS-35">
          <mxGeometry relative="1" as="geometry" />
        </mxCell>
        <mxCell id="sLLhHQ0Xb7AxkWWC5OnS-48" value="TRUE" style="edgeLabel;html=1;align=center;verticalAlign=middle;resizable=0;points=[];" vertex="1" connectable="0" parent="sLLhHQ0Xb7AxkWWC5OnS-36">
          <mxGeometry x="-0.1619" relative="1" as="geometry">
            <mxPoint as="offset" />
          </mxGeometry>
        </mxCell>
        <mxCell id="sLLhHQ0Xb7AxkWWC5OnS-53" value="FALSE" style="edgeStyle=orthogonalEdgeStyle;rounded=0;orthogonalLoop=1;jettySize=auto;html=1;entryX=0.5;entryY=0;entryDx=0;entryDy=0;" edge="1" parent="1" source="sLLhHQ0Xb7AxkWWC5OnS-16" target="sLLhHQ0Xb7AxkWWC5OnS-50">
          <mxGeometry relative="1" as="geometry" />
        </mxCell>
        <mxCell id="sLLhHQ0Xb7AxkWWC5OnS-16" value="b &amp;gt; c" style="shape=rhombus;perimeter=rhombusPerimeter;whiteSpace=wrap;html=1;fixedSize=1;" vertex="1" parent="1">
          <mxGeometry x="508.6600000000001" y="1050" width="170" height="70" as="geometry" />
        </mxCell>
        <mxCell id="sLLhHQ0Xb7AxkWWC5OnS-46" style="edgeStyle=orthogonalEdgeStyle;rounded=0;orthogonalLoop=1;jettySize=auto;html=1;exitX=0;exitY=0.5;exitDx=0;exitDy=0;entryX=0.5;entryY=0;entryDx=0;entryDy=0;" edge="1" parent="1" source="sLLhHQ0Xb7AxkWWC5OnS-34" target="sLLhHQ0Xb7AxkWWC5OnS-45">
          <mxGeometry relative="1" as="geometry" />
        </mxCell>
        <mxCell id="sLLhHQ0Xb7AxkWWC5OnS-47" value="TRUE" style="edgeLabel;html=1;align=center;verticalAlign=middle;resizable=0;points=[];" vertex="1" connectable="0" parent="sLLhHQ0Xb7AxkWWC5OnS-46">
          <mxGeometry x="0.136" y="-1" relative="1" as="geometry">
            <mxPoint as="offset" />
          </mxGeometry>
        </mxCell>
        <mxCell id="sLLhHQ0Xb7AxkWWC5OnS-49" value="FALSE" style="edgeStyle=orthogonalEdgeStyle;rounded=0;orthogonalLoop=1;jettySize=auto;html=1;entryX=0.5;entryY=0;entryDx=0;entryDy=0;" edge="1" parent="1" source="sLLhHQ0Xb7AxkWWC5OnS-34" target="0m2c8RY7dgpE1ZR3zUQE-28">
          <mxGeometry relative="1" as="geometry" />
        </mxCell>
        <mxCell id="sLLhHQ0Xb7AxkWWC5OnS-34" value="b &amp;gt; c" style="shape=rhombus;perimeter=rhombusPerimeter;whiteSpace=wrap;html=1;fixedSize=1;" vertex="1" parent="1">
          <mxGeometry x="-4.680000000000007" y="1160" width="170" height="70" as="geometry" />
        </mxCell>
        <mxCell id="sLLhHQ0Xb7AxkWWC5OnS-54" value="FALSE" style="edgeStyle=orthogonalEdgeStyle;rounded=0;orthogonalLoop=1;jettySize=auto;html=1;entryX=0.5;entryY=0;entryDx=0;entryDy=0;" edge="1" parent="1" source="sLLhHQ0Xb7AxkWWC5OnS-35" target="sLLhHQ0Xb7AxkWWC5OnS-51">
          <mxGeometry relative="1" as="geometry" />
        </mxCell>
        <mxCell id="sLLhHQ0Xb7AxkWWC5OnS-55" style="edgeStyle=orthogonalEdgeStyle;rounded=0;orthogonalLoop=1;jettySize=auto;html=1;entryX=0.5;entryY=0;entryDx=0;entryDy=0;exitX=1;exitY=0.5;exitDx=0;exitDy=0;" edge="1" parent="1" source="sLLhHQ0Xb7AxkWWC5OnS-35" target="sLLhHQ0Xb7AxkWWC5OnS-52">
          <mxGeometry relative="1" as="geometry" />
        </mxCell>
        <mxCell id="sLLhHQ0Xb7AxkWWC5OnS-64" value="TRUE" style="edgeLabel;html=1;align=center;verticalAlign=middle;resizable=0;points=[];" vertex="1" connectable="0" parent="sLLhHQ0Xb7AxkWWC5OnS-55">
          <mxGeometry x="0.2574" y="4" relative="1" as="geometry">
            <mxPoint as="offset" />
          </mxGeometry>
        </mxCell>
        <mxCell id="sLLhHQ0Xb7AxkWWC5OnS-35" value="a &amp;gt; c" style="shape=rhombus;perimeter=rhombusPerimeter;whiteSpace=wrap;html=1;fixedSize=1;" vertex="1" parent="1">
          <mxGeometry x="678.6600000000001" y="1160" width="170" height="70" as="geometry" />
        </mxCell>
        <mxCell id="sLLhHQ0Xb7AxkWWC5OnS-61" style="edgeStyle=orthogonalEdgeStyle;rounded=0;orthogonalLoop=1;jettySize=auto;html=1;entryX=0.5;entryY=0;entryDx=0;entryDy=0;" edge="1" parent="1" source="sLLhHQ0Xb7AxkWWC5OnS-43" target="sLLhHQ0Xb7AxkWWC5OnS-6">
          <mxGeometry relative="1" as="geometry">
            <Array as="points">
              <mxPoint x="250" y="1370" />
              <mxPoint x="422" y="1370" />
            </Array>
          </mxGeometry>
        </mxCell>
        <mxCell id="sLLhHQ0Xb7AxkWWC5OnS-43" value="WRITE a" style="shape=parallelogram;perimeter=parallelogramPerimeter;whiteSpace=wrap;html=1;fixedSize=1;" vertex="1" parent="1">
          <mxGeometry x="190.32" y="1170" width="120" height="50" as="geometry" />
        </mxCell>
        <mxCell id="sLLhHQ0Xb7AxkWWC5OnS-60" style="edgeStyle=orthogonalEdgeStyle;rounded=0;orthogonalLoop=1;jettySize=auto;html=1;entryX=0.5;entryY=0;entryDx=0;entryDy=0;" edge="1" parent="1" source="sLLhHQ0Xb7AxkWWC5OnS-45" target="sLLhHQ0Xb7AxkWWC5OnS-6">
          <mxGeometry relative="1" as="geometry">
            <mxPoint x="340" y="1400" as="targetPoint" />
            <Array as="points">
              <mxPoint x="-65" y="1370" />
              <mxPoint x="422" y="1370" />
            </Array>
          </mxGeometry>
        </mxCell>
        <mxCell id="sLLhHQ0Xb7AxkWWC5OnS-45" value="WRITE b" style="shape=parallelogram;perimeter=parallelogramPerimeter;whiteSpace=wrap;html=1;fixedSize=1;" vertex="1" parent="1">
          <mxGeometry x="-124.68" y="1290" width="120" height="50" as="geometry" />
        </mxCell>
        <mxCell id="sLLhHQ0Xb7AxkWWC5OnS-62" style="edgeStyle=orthogonalEdgeStyle;rounded=0;orthogonalLoop=1;jettySize=auto;html=1;entryX=0.5;entryY=0;entryDx=0;entryDy=0;" edge="1" parent="1" source="sLLhHQ0Xb7AxkWWC5OnS-50" target="sLLhHQ0Xb7AxkWWC5OnS-6">
          <mxGeometry relative="1" as="geometry">
            <Array as="points">
              <mxPoint x="594" y="1370" />
              <mxPoint x="422" y="1370" />
            </Array>
          </mxGeometry>
        </mxCell>
        <mxCell id="sLLhHQ0Xb7AxkWWC5OnS-50" value="WRITE b" style="shape=parallelogram;perimeter=parallelogramPerimeter;whiteSpace=wrap;html=1;fixedSize=1;" vertex="1" parent="1">
          <mxGeometry x="533.66" y="1170" width="120" height="50" as="geometry" />
        </mxCell>
        <mxCell id="sLLhHQ0Xb7AxkWWC5OnS-58" style="edgeStyle=orthogonalEdgeStyle;rounded=0;orthogonalLoop=1;jettySize=auto;html=1;entryX=0.5;entryY=0;entryDx=0;entryDy=0;" edge="1" parent="1" source="sLLhHQ0Xb7AxkWWC5OnS-51" target="sLLhHQ0Xb7AxkWWC5OnS-6">
          <mxGeometry relative="1" as="geometry">
            <Array as="points">
              <mxPoint x="764" y="1370" />
              <mxPoint x="422" y="1370" />
            </Array>
          </mxGeometry>
        </mxCell>
        <mxCell id="sLLhHQ0Xb7AxkWWC5OnS-51" value="WRITE c" style="shape=parallelogram;perimeter=parallelogramPerimeter;whiteSpace=wrap;html=1;fixedSize=1;" vertex="1" parent="1">
          <mxGeometry x="703.66" y="1290" width="120" height="50" as="geometry" />
        </mxCell>
        <mxCell id="sLLhHQ0Xb7AxkWWC5OnS-57" style="edgeStyle=orthogonalEdgeStyle;rounded=0;orthogonalLoop=1;jettySize=auto;html=1;entryX=0.5;entryY=0;entryDx=0;entryDy=0;" edge="1" parent="1" source="sLLhHQ0Xb7AxkWWC5OnS-52" target="sLLhHQ0Xb7AxkWWC5OnS-6">
          <mxGeometry relative="1" as="geometry">
            <Array as="points">
              <mxPoint x="909" y="1370" />
              <mxPoint x="422" y="1370" />
            </Array>
          </mxGeometry>
        </mxCell>
        <mxCell id="sLLhHQ0Xb7AxkWWC5OnS-52" value="WRITE a" style="shape=parallelogram;perimeter=parallelogramPerimeter;whiteSpace=wrap;html=1;fixedSize=1;" vertex="1" parent="1">
          <mxGeometry x="848.66" y="1290" width="120" height="50" as="geometry" />
        </mxCell>
      </root>
    </mxGraphModel>
  </diagram>
</mxfile>
